<?xml version="1.0" encoding="UTF-8"?>
<svg width="149px" height="87px" viewBox="0 0 149 87" version="1.1" xmlns="http://www.w3.org/2000/svg" xmlns:xlink="http://www.w3.org/1999/xlink">
    <!-- Generator: Sketch 48.1 (47250) - http://www.bohemiancoding.com/sketch -->
    <title>ifusion logo</title>
    <desc>Created with Sketch.</desc>
    <defs></defs>
    <g id="Login---Password" stroke="none" stroke-width="1" fill="none" fill-rule="evenodd" transform="translate(-599.000000, -208.000000)">
        <g id="sign-in" transform="translate(473.000000, 167.000000)">
            <g id="ifusion-logo" transform="translate(125.000000, 40.000000)">
                <g id="Artboard-2-Copy" transform="translate(0.085669, 0.429688)" fill-rule="nonzero">
                    <path d="M109.511821,18.2981777 C102.063712,18.2981777 96.0258267,24.3360632 96.0258267,31.7841723 C96.0258267,39.2322815 102.063712,45.270167 109.511821,45.270167 C116.959931,45.270167 122.997816,39.2322815 122.997816,31.7841723 C122.997816,28.2074642 121.576974,24.7772486 119.04786,22.2481341 C116.518745,19.7190195 113.088529,18.2981777 109.511821,18.2981777 Z M109.511821,39.7252647 C105.137014,39.7252647 101.590532,36.1787828 101.590532,31.8039756 C101.590532,27.4291685 105.137014,23.8826865 109.511821,23.8826865 C113.886629,23.8826865 117.43311,27.4291685 117.43311,31.8039756 C117.43311,36.1787828 113.886629,39.7252647 109.511821,39.7252647 Z" id="Shape" fill="#E54A25"></path>
                    <path d="M108.353333,8.9114502 L108.194907,20.100271 L110.264344,20.100271 L110.393065,8.9114502 C112.366839,8.4004944 113.65301,6.50187953 113.395469,4.47937264 C113.137928,2.45686577 111.416988,0.941168819 109.37815,0.941168819 C107.339311,0.941168819 105.61837,2.45686577 105.36083,4.47937264 C105.103289,6.50187953 106.38946,8.4004944 108.363234,8.9114502 L108.353333,8.9114502 Z" id="Shape" fill="#E54A25"></path>
                    <path d="M120.433299,14.852417 L115.997377,20.8824983 L117.680651,22.0805933 L122.076966,16.0604136 C123.97005,16.8147924 126.128819,16.0449672 127.117421,14.2629688 C128.106023,12.4809705 127.616482,10.2419375 125.974406,9.03510952 C124.332328,7.8282815 122.049264,8.02961654 120.643738,9.50520141 C119.238213,10.9807863 119.148084,13.2709381 120.433299,14.852417 Z" id="Shape" fill="#E54A25"></path>
                    <path d="M110.452474,55.0925654 L110.6109,43.9037446 L108.541463,43.9037446 L108.422644,55.0529589 C106.44887,55.5639148 105.162698,57.4625296 105.420239,59.4850365 C105.67778,61.5075433 107.398721,63.0232404 109.437559,63.0232404 C111.476397,63.0232404 113.197338,61.5075433 113.454879,59.4850365 C113.71242,57.4625296 112.426249,55.5639148 110.452474,55.0529589 L110.452474,55.0925654 Z" id="Shape" fill="#E54A25"></path>
                    <path d="M120.086743,53.4687012 C121.182533,55.3181281 123.534712,55.9855174 125.438509,54.9871699 C127.342305,53.9888226 128.13085,51.6744425 127.232636,49.7214068 C126.334421,47.768371 124.064078,46.8607946 122.067065,47.6564553 L117.660848,41.6461772 L115.977574,42.8442722 L120.433299,48.8644519 C119.365696,50.1754747 119.227414,52.0126406 120.086743,53.4687012 Z" id="Shape" fill="#E54A25"></path>
                    <path d="M97.2734297,48.3594697 L102.125219,42.6561416 L100.53106,41.3392273 L95.7287783,47.0326538 C93.8923004,46.1488073 91.6851126,46.767456 90.575544,48.4770446 C89.4659753,50.1866332 89.7997709,52.4544481 91.3548739,53.7718282 C92.9099768,55.0892085 95.2018118,55.0456539 96.7057383,53.6701391 C98.2096646,52.2946244 98.4570543,50.0157645 97.2833313,48.3495681 L97.2734297,48.3594697 Z" id="Shape" fill="#E54A25"></path>
                    <path d="M8.17873096,12.277998 C8.21617456,13.2492733 7.82950471,14.1888449 7.11925854,14.852417 C6.44358024,15.4938379 5.54577555,15.8487014 4.61415088,15.8425782 C3.66660094,15.8553378 2.7509673,15.5004411 2.05953516,14.852417 C1.34563688,14.1906367 0.955252089,13.2508214 0.990161132,12.277998 C0.937307724,11.2809231 1.32460543,10.310869 2.04963354,9.62436621 C2.74106569,8.97634207 3.65669933,8.6214453 4.60424927,8.63420507 C5.53587394,8.62808173 6.43367864,8.98294525 7.10935694,9.62436621 C7.83802989,10.3090733 8.22904523,11.2793706 8.17873096,12.277998 Z M7.55492945,44.8939058 L1.71297876,44.8939058 L1.71297876,19.6546985 L7.55492945,19.6546985 L7.55492945,44.8939058 Z" id="Shape" fill="#262626"></path>
                    <polygon id="Shape" fill="#262626" points="13.0404221 44.8840041 13.0404221 11.4561643 34.1704607 11.4561643 34.1704607 16.6149038 19.1101098 16.6149038 19.1101098 25.1500928 32.4772852 25.1500928 32.4772852 30.3088323 19.1101098 30.3088323 19.1101098 44.8840041"></polygon>
                    <path d="M57.8452134,44.1116785 C56.7164297,44.4021257 55.2542917,44.6991741 53.4587996,45.0028235 C51.4946592,45.3201834 49.5073961,45.4725402 47.5178328,45.4582976 C45.7782915,45.4997225 44.0479889,45.1933849 42.4284046,44.557251 C41.1493047,44.0418404 40.0217153,43.2106265 39.1509712,42.1412578 C38.3014803,41.0532266 37.6999591,39.7927357 37.3884844,38.4479568 C37.0198904,36.9077374 36.8403384,35.3283443 36.8537973,33.7446914 L36.8537973,19.6546985 L42.6858464,19.6546985 L42.6858464,32.8733496 C42.6858464,35.573189 43.0786103,37.5040031 43.8641382,38.6657922 C44.6496661,39.8275813 46.02599,40.4051752 47.9931101,40.3985743 C48.6994251,40.3985743 49.4486469,40.3655689 50.2407759,40.2995581 C50.8333581,40.2642277 51.4224843,40.184795 52.0032627,40.0619195 L52.0032627,19.6546985 L57.8452134,19.6546985 L57.8452134,44.1116785 Z" id="Shape" fill="#262626"></path>
                    <path d="M70.4796695,40.6857209 C71.6325579,40.7577106 72.786806,40.5681566 73.8561189,40.1312307 C74.5570574,39.7657798 74.9735199,39.0184826 74.9155913,38.2301214 C74.9163592,37.3904191 74.4913899,36.6075808 73.7868076,36.1507829 C72.6182003,35.4033084 71.3608828,34.8045859 70.0439985,34.368493 C69.0491492,34.0115889 68.0740984,33.6017371 67.1230232,33.1406931 C66.2939952,32.7442931 65.5241837,32.2344179 64.835751,31.6257466 C64.1888763,31.0402587 63.6726738,30.3249977 63.3208045,29.526605 C62.9307471,28.5859759 62.7418682,27.5741247 62.7663142,26.5561216 C62.6696349,24.402071 63.6353106,22.337523 65.3506348,21.0310224 C67.3723491,19.6097853 69.8143705,18.9120648 72.2817627,19.0507002 C73.7076739,19.0443445 75.1306588,19.1803407 76.529554,19.4566662 C77.5614411,19.6432377 78.5776385,19.9080447 79.5693487,20.2487952 L78.5098762,24.9718637 C77.7170032,24.6340478 76.8950962,24.3689166 76.0542767,24.1797348 C74.906571,23.9022745 73.7298733,23.7626663 72.5491062,23.7638672 C71.5502833,23.7236437 70.557022,23.9311401 69.6578357,24.3678655 C68.9513877,24.713167 68.5161608,25.4437267 68.5488552,26.2293684 C68.5422161,26.6102747 68.6164623,26.9882558 68.7666906,27.3383488 C68.9399563,27.6930711 69.1985205,27.9992656 69.5192132,28.2294939 C69.9540807,28.5522446 70.4220978,28.8277441 70.9153403,29.0513277 C71.6063063,29.3690738 72.3136113,29.6500127 73.0342852,29.8929646 C74.2380447,30.3281906 75.4150805,30.8340516 76.5592588,31.4079112 C77.4366547,31.8468503 78.2414595,32.4178944 78.9455471,33.1010867 C79.5591154,33.7054595 80.0294177,34.4396724 80.3218711,35.2497363 C80.6319346,36.1813514 80.7793103,37.1593898 80.757542,38.1410069 C80.8810531,40.3072886 79.8682259,42.3817088 78.084107,43.6165979 C76.2952158,44.9038074 73.7439007,45.5474121 70.4301613,45.5474121 C68.6281525,45.5937887 66.8276926,45.4074194 65.0733897,44.9929218 C64.1107642,44.7473167 63.1621249,44.449834 62.2316272,44.1017768 L63.2217883,39.2301841 C64.2366287,39.6243708 65.2750016,39.9550627 66.3308943,40.2203452 C67.6876814,40.5553162 69.0823868,40.711763 70.4796695,40.6857209 Z" id="Shape" fill="#262626"></path>
                    <path d="M92.4711482,12.3176045 C92.5232289,13.4185032 92.0887325,14.4866405 91.2829548,15.2385798 C90.5197802,15.9473908 89.5123318,16.3340523 88.4708972,16.3178555 C87.4137059,16.3396821 86.3887917,15.9531228 85.6093315,15.2385798 C84.8035539,14.4866405 84.3690574,13.4185032 84.4211382,12.3176045 C84.3637937,11.2013361 84.7979659,10.1159054 85.6093315,9.34712109 C86.3887917,8.63257815 87.4137059,8.2460188 88.4708972,8.26784545 C89.5123318,8.25164858 90.5197802,8.63831012 91.2829548,9.34712109 C92.0943205,10.1159054 92.5284928,11.2013361 92.4711482,12.3176045 Z M90.9760049,44.8840041 L85.1538575,44.8840041 L85.1538575,19.6546985 L90.9958081,19.6546985 L90.9760049,44.8840041 Z" id="Shape" fill="#262626"></path>
                    <path d="M128.4338,20.4765322 C129.87719,20.0862196 131.341718,19.7787677 132.820214,19.5556824 C134.78605,19.2549096 136.772499,19.1092367 138.761181,19.1200115 C140.518719,19.0687015 142.269827,19.3543908 143.919921,19.9616484 C145.206241,20.4552275 146.34477,21.2699237 147.227059,22.3281335 C148.074175,23.4026415 148.666621,24.6552439 148.959841,25.9917297 C149.325955,27.5327624 149.51203,29.1110708 149.514331,30.6949951 L149.514331,44.8840041 L143.672381,44.8840041 L143.672381,31.6158449 C143.687092,30.4615549 143.597615,29.3082917 143.405037,28.1700843 C143.274929,27.3466051 142.978455,26.5582555 142.533695,25.8531072 C142.133685,25.2583734 141.559581,24.8018572 140.890027,24.5460944 C140.07774,24.2541162 139.21806,24.1164331 138.355215,24.1401284 C137.58061,24.1431389 136.806888,24.1927365 136.038238,24.2886526 C135.232907,24.3876687 134.63881,24.4668816 134.255948,24.5262912 L134.255948,44.8840041 L128.413998,44.8840041 L128.4338,20.4765322 Z" id="Shape" fill="#262626"></path>
                    <path d="M7.78266651,57.9145247 C7.68365039,57.6438806 7.5780332,57.3765371 7.46581494,57.1124941 C7.35359668,56.8484512 7.2479795,56.5778071 7.14896338,56.300562 L3.96064453,56.300562 C3.86162842,56.5778071 3.7527107,56.8451507 3.65369458,57.1223958 L3.34674463,57.9145247 L1.98032227,57.9145247 C2.25756738,57.1818054 2.52491089,56.521698 2.78235278,55.9342024 C3.03979468,55.3467068 3.28733496,54.7592112 3.52497363,54.1717156 C3.7626123,53.6172253 4.00025098,53.0891394 4.23788965,52.5874578 C4.47552832,52.0857762 4.71976806,51.5906955 4.97060889,51.1022161 L6.26771998,51.1022161 C6.5185608,51.5906955 6.76280054,52.0857762 7.0004392,52.5874578 C7.23807788,53.0891394 7.47571656,53.6172253 7.71335522,54.1717156 C7.9509939,54.7262058 8.19853418,55.3137014 8.45597608,55.9342024 C8.71341797,56.5547034 8.98076147,57.2148108 9.25800659,57.9145247 L7.78266651,57.9145247 Z M5.57460718,52.3795239 C5.40958032,52.7293809 5.22144971,53.1551502 5.01021533,53.6568318 C4.79898096,54.1585134 4.57784498,54.7031021 4.34680738,55.2905977 L6.80240699,55.2905977 C6.57136939,54.7031021 6.3502334,54.1552129 6.13899902,53.6469301 C5.92776465,53.1386474 5.73963403,52.7161787 5.57460718,52.3795239 Z" id="Shape" fill="#E54A25"></path>
                    <path d="M17.7337859,57.9145247 C17.4895461,57.5382634 17.2156016,57.1355979 16.9119522,56.7065281 C16.6083027,56.2774583 16.2947517,55.8417873 15.9712991,55.3995154 C15.6478464,54.9572434 15.3177927,54.5314741 14.9811379,54.1222075 C14.6444832,53.7129409 14.3144295,53.3432808 13.9909768,53.0132271 L13.9909768,57.9640327 L12.6938657,57.9640327 L12.6938657,51.052708 L13.8028462,51.052708 C14.0932935,51.3299532 14.403544,51.6600069 14.7335977,52.0428691 C15.0636514,52.4257315 15.393705,52.8184954 15.7237588,53.2211609 C16.0604136,53.6304275 16.3904673,54.0429946 16.71392,54.4588623 C17.0373726,54.87473 17.3146177,55.2608928 17.5456553,55.6173508 L17.5456553,51.0626096 L18.8922744,51.0626096 L18.8922744,57.9244262 L17.7337859,57.9145247 Z" id="Shape" fill="#E54A25"></path>
                    <path d="M28.1502811,57.9145247 C28.0512649,57.6438806 27.9456477,57.3765371 27.8334295,57.1124941 C27.7212112,56.8484512 27.6155939,56.5778071 27.5165779,56.300562 L24.3678655,56.300562 C24.2688493,56.5778071 24.1599316,56.8451507 24.0609156,57.1223958 L23.7539656,57.9145247 L22.3479368,57.9145247 C22.6251819,57.1818054 22.8925254,56.521698 23.1499673,55.9342024 C23.4074092,55.3467068 23.6549495,54.7592112 23.8925882,54.1717156 C24.1302268,53.6172253 24.3678655,53.0891394 24.6055041,52.5874578 C24.8431428,52.0857762 25.0873825,51.5906955 25.3382234,51.1022161 L26.6353344,51.1022161 C26.8861753,51.5906955 27.1304151,52.0857762 27.3680537,52.5874578 C27.6056924,53.0891394 27.843331,53.6172253 28.0809697,54.1717156 C28.3186085,54.7262058 28.5661487,55.3137014 28.8235906,55.9342024 C29.0810324,56.5547034 29.348376,57.2148108 29.6256211,57.9145247 L28.1502811,57.9145247 Z M25.9521233,52.3795239 C25.7870964,52.7293809 25.5989658,53.1551502 25.3877315,53.6568318 C25.1764971,54.1585134 24.9652627,54.7031021 24.7540283,55.2905977 L27.2096279,55.2905977 C26.9785903,54.7031021 26.7574544,54.1552129 26.5462199,53.6469301 C26.3349856,53.1386474 26.1369534,52.7161787 25.9521233,52.3795239 Z" id="Shape" fill="#E54A25"></path>
                    <polygon id="Shape" fill="#E54A25" points="37.7944504 56.835249 37.7944504 57.9145247 33.0713819 57.9145247 33.0713819 51.052708 34.4279026 51.052708 34.4279026 56.835249"></polygon>
                    <path d="M43.8542366,54.0925026 C44.1776892,53.5974221 44.507743,53.0957405 44.8443977,52.5874578 C45.1810525,52.0791751 45.4615982,51.5675918 45.6860347,51.052708 L47.1910795,51.052708 C46.7884141,51.7524219 46.3692459,52.4455347 45.9335749,53.1320464 C45.4979041,53.8185581 45.0325283,54.5149714 44.5374478,55.2212863 L44.5374478,57.9145247 L43.1413205,57.9145247 L43.1413205,55.2410896 C42.64624,54.5347747 42.1775637,53.8350608 41.7352917,53.141948 C41.2930198,52.4488352 40.8738516,51.7524219 40.4777871,51.052708 L42.0719465,51.052708 C42.3227873,51.5675918 42.6000324,52.0791751 42.9036819,52.5874578 C43.2073313,53.0957405 43.5241829,53.5974221 43.8542366,54.0925026 Z" id="Shape" fill="#E54A25"></path>
                    <polygon id="Shape" fill="#E54A25" points="55.7955798 51.052708 55.7955798 52.1319836 53.4687012 52.1319836 53.4687012 57.9145247 52.1319836 57.9145247 52.1319836 52.1319836 49.8348099 52.1319836 49.8348099 51.052708"></polygon>
                    <polygon id="Shape" fill="#E54A25" points="59.3403567 51.052708 60.6968775 51.052708 60.6968775 57.9145247 59.3403567 57.9145247"></polygon>
                    <path d="M68.3211181,58.0630488 C67.8095552,58.0702493 67.3005309,57.989877 66.8160733,57.8254102 C66.3915194,57.6793864 66.0055886,57.4390259 65.6872896,57.1223958 C65.3709277,56.8058649 65.1276062,56.4239853 64.9743735,56.0035137 C64.795544,55.5085164 64.7083083,54.9851018 64.7169316,54.4588623 C64.7073798,53.9362926 64.8051091,53.4173168 65.0040784,52.9340142 C65.1833914,52.5102806 65.4499151,52.1290504 65.7863056,51.815132 C66.1228801,51.5024075 66.5207489,51.2630119 66.9546958,51.1121176 C67.4160406,50.9509053 67.9017448,50.8705129 68.3904295,50.874479 C68.6724371,50.8735698 68.9540069,50.8967579 69.2320664,50.9437903 C69.4521227,50.9788261 69.6702431,51.0250941 69.8855728,51.0824128 C70.04511,51.1254799 70.2007753,51.1817844 70.3509485,51.2507402 L70.6083904,51.3794612 L70.2123259,52.3696224 C69.9771331,52.2446112 69.7278185,52.1482095 69.469705,52.0824756 C69.1305813,51.9926624 68.7808237,51.9493591 68.4300359,51.9537546 C68.119385,51.9520143 67.810911,52.0056619 67.5190877,52.1121804 C67.2478781,52.2096044 67.0011989,52.365046 66.79627,52.5676546 C66.5834637,52.7873918 66.4212531,53.0509839 66.3209927,53.3399802 C66.1933362,53.6988209 66.1329172,54.0781185 66.1427637,54.4588623 C66.1410068,54.7938721 66.1876974,55.127376 66.2813863,55.4490234 C66.363345,55.7361552 66.5050645,56.0027227 66.6972539,56.2312507 C66.8906211,56.4570701 67.1350068,56.6335709 67.41017,56.7461345 C67.7257725,56.8683766 68.0619116,56.9288816 68.400331,56.9243635 C68.7971755,56.9366048 69.1937817,56.893278 69.5786229,56.7956425 C69.8188479,56.7309107 70.0538518,56.6481629 70.2816373,56.5481023 L70.6479969,57.5382634 C70.5382014,57.6027875 70.4220744,57.6558742 70.3014404,57.6966892 C70.1294317,57.7587259 69.9542578,57.8116085 69.7766551,57.855115 C69.5515291,57.908495 69.3233732,57.9481743 69.0934439,57.9739344 C68.8378342,58.0178025 68.5800015,58.0475524 68.3211181,58.0630488 Z" id="Shape" fill="#E54A25"></path>
                    <path d="M76.2424072,56.9837732 C76.5866496,56.9952611 76.9279359,56.9167653 77.2325684,56.7560361 C77.4507054,56.6161303 77.5787156,56.371405 77.5692232,56.1124314 C77.5743508,55.963016 77.5365529,55.8152606 77.4603055,55.6866621 C77.3750859,55.556377 77.2638373,55.4451285 77.1335522,55.3599089 C76.9715648,55.2533421 76.7990253,55.1637544 76.6186685,55.0925654 C76.4206363,55.0133526 76.1829976,54.924238 75.9255556,54.8450252 C75.6681137,54.7658123 75.4205735,54.6667961 75.1730332,54.5578784 C74.9448468,54.463499 74.7314261,54.3367804 74.53933,54.1816172 C74.3564646,54.031129 74.2050548,53.8460725 74.0937575,53.6370286 C73.9764762,53.4003593 73.9186971,53.1386535 73.9254302,52.8746045 C73.9052531,52.303149 74.1682999,51.758531 74.6284446,51.4190676 C75.1896301,51.036209 75.8610667,50.8483459 76.5394555,50.8843806 C76.9599789,50.8800504 77.3793049,50.9299703 77.7870586,51.0329048 C78.0849219,51.1022042 78.3739288,51.2051838 78.6484988,51.3398547 L78.2326311,52.3300159 C77.9784828,52.2008233 77.708995,52.10434 77.4306006,52.0428691 C77.1349593,51.9759148 76.8326798,51.9426972 76.529554,51.9438531 C76.2281005,51.9257533 75.9281168,51.9981631 75.6681137,52.1517868 C75.4693298,52.2782067 75.3524984,52.5005632 75.3611638,52.735982 C75.3554254,52.8747751 75.3898022,53.0122822 75.46018,53.1320464 C75.5350292,53.2465724 75.6328007,53.3443438 75.7473267,53.4191931 C75.8878336,53.5126001 76.0370538,53.5921842 76.1928992,53.6568318 L76.7473894,53.8647656 C77.0972464,53.9835849 77.4273001,54.1057048 77.7375506,54.2311252 C77.9929956,54.339145 78.2301501,54.486114 78.440565,54.6667961 C78.6271588,54.8308858 78.7758202,55.0336058 78.8762358,55.2608928 C78.9818961,55.5216616 79.032464,55.8014702 79.02476,56.0827266 C79.0485875,56.6517946 78.7796067,57.1934922 78.3118439,57.5184602 C77.6812792,57.9007899 76.9486128,58.0805005 76.2127024,58.0333439 C75.9313522,58.0362104 75.6501393,58.0196685 75.3710654,57.9838359 C75.1407599,57.9513399 74.9126126,57.9050492 74.6878542,57.8452134 C74.5131779,57.7988974 74.3412732,57.7426979 74.1729704,57.676886 L73.8264141,57.5283618 L74.2224786,56.5382007 C74.4741804,56.6595576 74.7358959,56.7589431 75.0047058,56.835249 C75.4076399,56.9457837 75.8247611,56.9958383 76.2424072,56.9837732 Z" id="Shape" fill="#E54A25"></path>
                </g>
                <path d="M1.64666296,69.74 L149.046663,69.74" id="Line-Copy" stroke="#262626" stroke-width="0.8" stroke-linecap="square"></path>
                <path d="M37.939,82.797 L36.971,80.1515 C36.923333,80.0341661 36.8738336,79.8948341 36.8225,79.7335 C36.7711664,79.5721659 36.7198336,79.3980009 36.6685,79.211 C36.6208332,79.3980009 36.5713336,79.5730825 36.52,79.73625 C36.4686664,79.8994175 36.419167,80.0414994 36.3715,80.1625 L35.409,82.797 L37.939,82.797 Z M40.5515,85.8 L39.4075,85.8 C39.2791661,85.8 39.1746671,85.767917 39.094,85.70375 C39.0133329,85.639583 38.9528336,85.5598338 38.9125,85.4645 L38.3185,83.842 L35.024,83.842 L34.43,85.4645 C34.4006665,85.5488338 34.3438338,85.6258329 34.2595,85.6955 C34.1751663,85.7651671 34.0706673,85.8 33.946,85.8 L32.791,85.8 L35.9205,77.847 L37.4275,77.847 L40.5515,85.8 Z M42.4215,80.85 C42.5351673,80.7363328 42.6552493,80.6309172 42.78175,80.53375 C42.9082507,80.4365828 43.0420826,80.3540837 43.18325,80.28625 C43.3244174,80.2184163 43.4756659,80.1652502 43.637,80.12675 C43.7983341,80.0882498 43.9743324,80.069 44.165,80.069 C44.4730015,80.069 44.7461655,80.1212494 44.9845,80.22575 C45.2228346,80.3302505 45.4217492,80.4769157 45.58125,80.66575 C45.7407508,80.8545842 45.8617496,81.080082 45.94425,81.34225 C46.0267504,81.6044179 46.068,81.8931651 46.068,82.2085 L46.068,85.8 L44.7095,85.8 L44.7095,82.2085 C44.7095,81.8638316 44.6306675,81.5970842 44.473,81.40825 C44.3153326,81.2194157 44.0751683,81.125 43.7525,81.125 C43.5178322,81.125 43.2978344,81.1781661 43.0925,81.2845 C42.8871656,81.3908338 42.6928343,81.5356657 42.5095,81.719 L42.5095,85.8 L41.151,85.8 L41.151,80.157 L41.9815,80.157 C42.1575009,80.157 42.2729998,80.2394991 42.328,80.4045 L42.4215,80.85 Z M51.7275,85.8 L50.2425,85.8 L50.2425,77.847 L51.7275,77.847 L51.7275,85.8 Z M54.4775,80.85 C54.5911672,80.7363328 54.7112493,80.6309172 54.83775,80.53375 C54.9642507,80.4365828 55.0980826,80.3540837 55.23925,80.28625 C55.3804174,80.2184163 55.5316659,80.1652502 55.693,80.12675 C55.8543341,80.0882498 56.0303324,80.069 56.221,80.069 C56.5290015,80.069 56.8021654,80.1212494 57.0405,80.22575 C57.2788345,80.3302505 57.4777492,80.4769157 57.63725,80.66575 C57.7967508,80.8545842 57.9177496,81.080082 58.00025,81.34225 C58.0827504,81.6044179 58.124,81.8931651 58.124,82.2085 L58.124,85.8 L56.7655,85.8 L56.7655,82.2085 C56.7655,81.8638316 56.6866675,81.5970842 56.529,81.40825 C56.3713326,81.2194157 56.1311683,81.125 55.8085,81.125 C55.5738322,81.125 55.3538344,81.1781661 55.1485,81.2845 C54.9431656,81.3908338 54.7488343,81.5356657 54.5655,81.719 L54.5655,85.8 L53.207,85.8 L53.207,80.157 L54.0375,80.157 C54.2135009,80.157 54.3289998,80.2394991 54.384,80.4045 L54.4775,80.85 Z M60.6815,80.85 C60.7951672,80.7363328 60.9152493,80.6309172 61.04175,80.53375 C61.1682507,80.4365828 61.3020826,80.3540837 61.44325,80.28625 C61.5844174,80.2184163 61.7356659,80.1652502 61.897,80.12675 C62.0583341,80.0882498 62.2343324,80.069 62.425,80.069 C62.7330015,80.069 63.0061654,80.1212494 63.2445,80.22575 C63.4828345,80.3302505 63.6817492,80.4769157 63.84125,80.66575 C64.0007508,80.8545842 64.1217496,81.080082 64.20425,81.34225 C64.2867504,81.6044179 64.328,81.8931651 64.328,82.2085 L64.328,85.8 L62.9695,85.8 L62.9695,82.2085 C62.9695,81.8638316 62.8906675,81.5970842 62.733,81.40825 C62.5753326,81.2194157 62.3351683,81.125 62.0125,81.125 C61.7778322,81.125 61.5578344,81.1781661 61.3525,81.2845 C61.1471656,81.3908338 60.9528343,81.5356657 60.7695,81.719 L60.7695,85.8 L59.411,85.8 L59.411,80.157 L60.2415,80.157 C60.4175009,80.157 60.5329997,80.2394991 60.588,80.4045 L60.6815,80.85 Z M68.112,80.069 C68.5300021,80.069 68.910415,80.1368327 69.25325,80.2725 C69.596085,80.4081673 69.8894154,80.6006654 70.13325,80.85 C70.3770846,81.0993346 70.5649993,81.4036649 70.697,81.763 C70.8290007,82.1223351 70.895,82.5238312 70.895,82.9675 C70.895,83.4148356 70.8290007,83.8181649 70.697,84.1775 C70.5649993,84.5368351 70.3770846,84.8429987 70.13325,85.096 C69.8894154,85.3490013 69.596085,85.5433326 69.25325,85.679 C68.910415,85.8146674 68.5300021,85.8825 68.112,85.8825 C67.6903313,85.8825 67.3071684,85.8146674 66.9625,85.679 C66.6178316,85.5433326 66.3235846,85.3490013 66.07975,85.096 C65.8359154,84.8429987 65.647084,84.5368351 65.51325,84.1775 C65.379416,83.8181649 65.3125,83.4148356 65.3125,82.9675 C65.3125,82.5238312 65.379416,82.1223351 65.51325,81.763 C65.647084,81.4036649 65.8359154,81.0993346 66.07975,80.85 C66.3235846,80.6006654 66.6178316,80.4081673 66.9625,80.2725 C67.3071684,80.1368327 67.6903313,80.069 68.112,80.069 Z M68.112,84.8375 C68.5813357,84.8375 68.9287489,84.6798349 69.15425,84.3645 C69.3797511,84.0491651 69.4925,83.5871697 69.4925,82.9785 C69.4925,82.3698303 69.3797511,81.9060015 69.15425,81.587 C68.9287489,81.2679983 68.5813357,81.1085 68.112,81.1085 C67.635331,81.1085 67.2824178,81.2689151 67.05325,81.58975 C66.8240822,81.9105849 66.7095,82.3734969 66.7095,82.9785 C66.7095,83.5835031 66.8240822,84.0445817 67.05325,84.36175 C67.2824178,84.6789183 67.635331,84.8375 68.112,84.8375 Z M71.9345,85.8 L71.9345,80.157 L72.765,80.157 C72.9410009,80.157 73.0564997,80.2394991 73.1115,80.4045 L73.1995,80.8225 C73.2985006,80.7124994 73.4020828,80.6116671 73.51025,80.52 C73.6184172,80.4283328 73.7339161,80.3495003 73.85675,80.2835 C73.9795839,80.2174997 74.1115826,80.1652502 74.25275,80.12675 C74.3939174,80.0882498 74.5488325,80.069 74.7175,80.069 C75.0731685,80.069 75.3655822,80.165249 75.59475,80.35775 C75.8239178,80.550251 75.9953328,80.8059983 76.109,81.125 C76.1970004,80.9379991 76.3069993,80.777584 76.439,80.64375 C76.5710007,80.509916 76.7158325,80.4008337 76.8735,80.3165 C77.0311675,80.2321663 77.1989158,80.1698336 77.37675,80.1295 C77.5545843,80.0891664 77.7333325,80.069 77.913,80.069 C78.2246683,80.069 78.5014988,80.1166662 78.7435,80.212 C78.9855012,80.3073338 79.1889992,80.4466657 79.354,80.63 C79.5190009,80.8133342 79.6445829,81.0369987 79.73075,81.301 C79.8169171,81.5650013 79.86,81.8674983 79.86,82.2085 L79.86,85.8 L78.5015,85.8 L78.5015,82.2085 C78.5015,81.8491649 78.4226674,81.5787509 78.265,81.39725 C78.1073326,81.2157491 77.8763348,81.125 77.572,81.125 C77.432666,81.125 77.3034173,81.148833 77.18425,81.1965 C77.0650827,81.2441668 76.9605838,81.3129162 76.87075,81.40275 C76.7809162,81.4925838 76.7103336,81.6053326 76.659,81.741 C76.6076664,81.8766674 76.582,82.0324991 76.582,82.2085 L76.582,85.8 L75.218,85.8 L75.218,82.2085 C75.218,81.8308315 75.1419174,81.5558341 74.98975,81.3835 C74.8375826,81.2111657 74.6148348,81.125 74.3215,81.125 C74.123499,81.125 73.9392509,81.1735828 73.76875,81.27075 C73.5982491,81.3679172 73.4396674,81.5008325 73.293,81.6695 L73.293,85.8 L71.9345,85.8 Z M82.555,80.157 L82.555,85.8 L81.191,85.8 L81.191,80.157 L82.555,80.157 Z M82.742,78.5125 C82.742,78.6298339 82.718167,78.7398328 82.6705,78.8425 C82.6228332,78.9451672 82.5595837,79.0349997 82.48075,79.112 C82.4019163,79.1890004 82.3093339,79.2504164 82.203,79.29625 C82.0966662,79.3420836 81.9830007,79.365 81.862,79.365 C81.7446661,79.365 81.6337506,79.3420836 81.52925,79.29625 C81.4247495,79.2504164 81.3340004,79.1890004 81.257,79.112 C81.1799997,79.0349997 81.1185836,78.9451672 81.07275,78.8425 C81.0269164,78.7398328 81.004,78.6298339 81.004,78.5125 C81.004,78.3914994 81.0269164,78.2778338 81.07275,78.1715 C81.1185836,78.0651661 81.1799997,77.9735003 81.257,77.8965 C81.3340004,77.8194996 81.4247495,77.7580836 81.52925,77.71225 C81.6337506,77.6664164 81.7446661,77.6435 81.862,77.6435 C81.9830007,77.6435 82.0966662,77.6664164 82.203,77.71225 C82.3093339,77.7580836 82.4019163,77.8194996 82.48075,77.8965 C82.5595837,77.9735003 82.6228332,78.0651661 82.6705,78.1715 C82.718167,78.2778338 82.742,78.3914994 82.742,78.5125 Z M85.2115,80.85 C85.3251673,80.7363328 85.4452493,80.6309172 85.57175,80.53375 C85.6982507,80.4365828 85.8320826,80.3540837 85.97325,80.28625 C86.1144174,80.2184163 86.2656659,80.1652502 86.427,80.12675 C86.5883341,80.0882498 86.7643324,80.069 86.955,80.069 C87.2630015,80.069 87.5361655,80.1212494 87.7745,80.22575 C88.0128346,80.3302505 88.2117492,80.4769157 88.37125,80.66575 C88.5307508,80.8545842 88.6517496,81.080082 88.73425,81.34225 C88.8167504,81.6044179 88.858,81.8931651 88.858,82.2085 L88.858,85.8 L87.4995,85.8 L87.4995,82.2085 C87.4995,81.8638316 87.4206675,81.5970842 87.263,81.40825 C87.1053326,81.2194157 86.8651683,81.125 86.5425,81.125 C86.3078322,81.125 86.0878344,81.1781661 85.8825,81.2845 C85.6771656,81.3908338 85.4828343,81.5356657 85.2995,81.719 L85.2995,85.8 L83.941,85.8 L83.941,80.157 L84.7715,80.157 C84.9475009,80.157 85.0629998,80.2394991 85.118,80.4045 L85.2115,80.85 Z M93.687,81.598 C93.5329992,81.410999 93.3652509,81.2790003 93.18375,81.202 C93.0022491,81.1249997 92.807001,81.0865 92.598,81.0865 C92.3926656,81.0865 92.2075009,81.1249997 92.0425,81.202 C91.8774992,81.2790003 91.7363339,81.3954159 91.619,81.55125 C91.5016661,81.7070841 91.4118337,81.9050822 91.3495,82.14525 C91.2871663,82.3854178 91.256,82.6686651 91.256,82.995 C91.256,83.3250016 91.282583,83.6045822 91.33575,83.83375 C91.388917,84.0629178 91.4649996,84.249916 91.564,84.39475 C91.6630006,84.539584 91.7839993,84.644083 91.927,84.70825 C92.0700007,84.772417 92.2294991,84.8045 92.4055,84.8045 C92.6878348,84.8045 92.927999,84.7458339 93.126,84.6285 C93.324001,84.5111661 93.5109991,84.3443344 93.687,84.128 L93.687,81.598 Z M95.0455,77.627 L95.0455,85.8 L94.215,85.8 C94.0353325,85.8 93.921667,85.7175008 93.874,85.5525 L93.7585,85.008 C93.5311655,85.2683347 93.2699182,85.4791659 92.97475,85.6405 C92.6795818,85.8018341 92.3358354,85.8825 91.9435,85.8825 C91.6354985,85.8825 91.353168,85.8183339 91.0965,85.69 C90.8398321,85.561666 90.6189176,85.3755846 90.43375,85.13175 C90.2485824,84.8879154 90.1055838,84.5863351 90.00475,84.227 C89.9039162,83.8676649 89.8535,83.4570023 89.8535,82.995 C89.8535,82.5769979 89.9103328,82.1883351 90.024,81.829 C90.1376673,81.4696649 90.3008323,81.1580013 90.5135,80.894 C90.7261677,80.6299987 90.9809986,80.4237508 91.278,80.27525 C91.5750015,80.1267492 91.9086649,80.0525 92.279,80.0525 C92.5943349,80.0525 92.8638323,80.1019996 93.0875,80.201 C93.3111678,80.3000005 93.5109991,80.4338325 93.687,80.6025 L93.687,77.627 L95.0455,77.627 Z M99.8305,81.257 C99.7938332,81.315667 99.7553336,81.3569165 99.715,81.38075 C99.6746665,81.4045835 99.6233337,81.4165 99.561,81.4165 C99.4949997,81.4165 99.4244171,81.3981668 99.34925,81.3615 C99.2740829,81.3248331 99.1870006,81.2835836 99.088,81.23775 C98.9889996,81.1919164 98.8762507,81.1506668 98.74975,81.114 C98.6232493,81.0773331 98.4738343,81.059 98.3015,81.059 C98.0338321,81.059 97.8239174,81.1158328 97.67175,81.2295 C97.5195826,81.3431672 97.4435,81.4916657 97.4435,81.675 C97.4435,81.7960005 97.4829163,81.8977496 97.56175,81.98025 C97.6405837,82.0627504 97.7450827,82.1351664 97.87525,82.1975 C98.0054173,82.2598337 98.1529992,82.3157498 98.318,82.36525 C98.4830008,82.4147502 98.6507491,82.468833 98.82125,82.5275 C98.9917509,82.586167 99.1594992,82.6530829 99.3245,82.72825 C99.4895009,82.8034171 99.6370827,82.8987494 99.76725,83.01425 C99.8974173,83.1297505 100.001916,83.2681659 100.08075,83.4295 C100.159584,83.5908341 100.199,83.7851655 100.199,84.0125 C100.199,84.2838347 100.150417,84.5340822 100.05325,84.76325 C99.9560828,84.9924178 99.8121676,85.1904159 99.6215,85.35725 C99.4308324,85.5240841 99.1952514,85.6542496 98.91475,85.74775 C98.6342486,85.8412504 98.3106685,85.888 97.944,85.888 C97.7496658,85.888 97.5599176,85.8705835 97.37475,85.83575 C97.1895824,85.8009165 97.0117509,85.7523336 96.84125,85.69 C96.6707491,85.6276663 96.513084,85.5543338 96.36825,85.47 C96.223416,85.3856663 96.0960006,85.2940005 95.986,85.195 L96.2995,84.678 C96.3398336,84.6156663 96.3874998,84.5680002 96.4425,84.535 C96.4975003,84.5019999 96.5671663,84.4855 96.6515,84.4855 C96.7358338,84.4855 96.8155829,84.5093331 96.89075,84.557 C96.9659171,84.604667 97.0529996,84.6559997 97.152,84.711 C97.2510006,84.7660003 97.367416,84.8173331 97.50125,84.865 C97.635084,84.912667 97.8046656,84.9365 98.01,84.9365 C98.1713341,84.9365 98.3097495,84.9172502 98.42525,84.87875 C98.5407506,84.8402498 98.6360829,84.7898336 98.71125,84.7275 C98.7864171,84.6651663 98.8414165,84.5927504 98.87625,84.51025 C98.9110835,84.4277496 98.9285,84.3425004 98.9285,84.2545 C98.9285,84.1224993 98.8890837,84.0143337 98.81025,83.93 C98.7314163,83.8456662 98.6269173,83.7723337 98.49675,83.71 C98.3665827,83.6476664 98.2180841,83.5917502 98.05125,83.54225 C97.8844159,83.4927498 97.7139175,83.438667 97.53975,83.38 C97.3655825,83.321333 97.1950841,83.2525837 97.02825,83.17375 C96.8614159,83.0949163 96.7129173,82.9950005 96.58275,82.874 C96.4525827,82.7529993 96.3480837,82.6045009 96.26925,82.4285 C96.1904163,82.2524991 96.151,82.0398346 96.151,81.7905 C96.151,81.5594989 96.1968329,81.339501 96.2885,81.1305 C96.3801672,80.9214989 96.5149158,80.7390841 96.69275,80.58325 C96.8705843,80.4274159 97.0924153,80.3027504 97.35825,80.20925 C97.6240847,80.1157496 97.931165,80.069 98.2795,80.069 C98.6681686,80.069 99.0219984,80.133166 99.341,80.2615 C99.6600017,80.3898339 99.9258323,80.5584989 100.1385,80.7675 L99.8305,81.257 Z M109.571,83.9245 C109.651667,83.9245 109.723166,83.9556664 109.7855,84.018 L110.3685,84.6505 C110.045832,85.0501686 109.648919,85.3563323 109.17775,85.569 C108.706581,85.7816677 108.141003,85.888 107.481,85.888 C106.890664,85.888 106.359919,85.7871677 105.88875,85.5855 C105.417581,85.3838324 105.015168,85.1033351 104.6815,84.744 C104.347832,84.3846649 104.092084,83.9556692 103.91425,83.457 C103.736416,82.9583308 103.6475,82.4138363 103.6475,81.8235 C103.6475,81.2258303 103.742832,80.6785858 103.9335,80.18175 C104.124168,79.6849142 104.392748,79.2568351 104.73925,78.8975 C105.085752,78.5381649 105.499164,78.2585844 105.9795,78.05875 C106.459836,77.8589156 106.991497,77.759 107.5745,77.759 C108.153836,77.759 108.668081,77.8543324 109.11725,78.045 C109.566419,78.2356676 109.948665,78.4849985 110.264,78.793 L109.769,79.4805 C109.739667,79.5245002 109.702084,79.5629999 109.65625,79.596 C109.610416,79.6290002 109.547167,79.6455 109.4665,79.6455 C109.4115,79.6455 109.354667,79.6299168 109.296,79.59875 C109.237333,79.5675831 109.173167,79.5290836 109.1035,79.48325 C109.033833,79.4374164 108.953167,79.3870003 108.8615,79.332 C108.769833,79.2769997 108.663501,79.2265836 108.5425,79.18075 C108.421499,79.1349164 108.281251,79.0964168 108.12175,79.06525 C107.962249,79.0340831 107.778001,79.0185 107.569,79.0185 C107.213332,79.0185 106.887918,79.0817493 106.59275,79.20825 C106.297582,79.3347507 106.043668,79.5180822 105.831,79.75825 C105.618332,79.9984178 105.453334,80.2917482 105.336,80.63825 C105.218666,80.9847518 105.16,81.3798311 105.16,81.8235 C105.16,82.2708356 105.223249,82.668665 105.34975,83.017 C105.476251,83.3653351 105.647666,83.6586654 105.864,83.897 C106.080334,84.1353345 106.335165,84.3177493 106.6285,84.44425 C106.921835,84.5707507 107.237165,84.634 107.5745,84.634 C107.776168,84.634 107.958582,84.6230001 108.12175,84.601 C108.284918,84.5789999 108.435249,84.5441668 108.57275,84.4965 C108.710251,84.448833 108.840416,84.3874171 108.96325,84.31225 C109.086084,84.2370829 109.207999,84.1445005 109.329,84.0345 C109.365667,84.0014999 109.404167,83.9749167 109.4445,83.95475 C109.484834,83.9345833 109.527,83.9245 109.571,83.9245 Z M113.553,80.069 C113.971002,80.069 114.351415,80.1368327 114.69425,80.2725 C115.037085,80.4081673 115.330415,80.6006654 115.57425,80.85 C115.818085,81.0993346 116.005999,81.4036649 116.138,81.763 C116.270001,82.1223351 116.336,82.5238312 116.336,82.9675 C116.336,83.4148356 116.270001,83.8181649 116.138,84.1775 C116.005999,84.5368351 115.818085,84.8429987 115.57425,85.096 C115.330415,85.3490013 115.037085,85.5433326 114.69425,85.679 C114.351415,85.8146674 113.971002,85.8825 113.553,85.8825 C113.131332,85.8825 112.748169,85.8146674 112.4035,85.679 C112.058832,85.5433326 111.764585,85.3490013 111.52075,85.096 C111.276915,84.8429987 111.088084,84.5368351 110.95425,84.1775 C110.820416,83.8181649 110.7535,83.4148356 110.7535,82.9675 C110.7535,82.5238312 110.820416,82.1223351 110.95425,81.763 C111.088084,81.4036649 111.276915,81.0993346 111.52075,80.85 C111.764585,80.6006654 112.058832,80.4081673 112.4035,80.2725 C112.748169,80.1368327 113.131332,80.069 113.553,80.069 Z M113.553,84.8375 C114.022336,84.8375 114.369749,84.6798349 114.59525,84.3645 C114.820751,84.0491651 114.9335,83.5871697 114.9335,82.9785 C114.9335,82.3698303 114.820751,81.9060015 114.59525,81.587 C114.369749,81.2679983 114.022336,81.1085 113.553,81.1085 C113.076332,81.1085 112.723417,81.2689151 112.49425,81.58975 C112.265083,81.9105849 112.1505,82.3734969 112.1505,82.9785 C112.1505,83.5835031 112.265083,84.0445817 112.49425,84.36175 C112.723417,84.6789183 113.076332,84.8375 113.553,84.8375 Z M117.3755,85.8 L117.3755,80.157 L118.206,80.157 C118.382001,80.157 118.4975,80.2394991 118.5525,80.4045 L118.6405,80.8225 C118.7395,80.7124994 118.843083,80.6116671 118.95125,80.52 C119.059417,80.4283328 119.174916,80.3495003 119.29775,80.2835 C119.420584,80.2174997 119.552583,80.1652502 119.69375,80.12675 C119.834917,80.0882498 119.989833,80.069 120.1585,80.069 C120.514169,80.069 120.806583,80.165249 121.03575,80.35775 C121.264917,80.550251 121.436333,80.8059983 121.55,81.125 C121.638,80.9379991 121.747999,80.777584 121.88,80.64375 C122.012001,80.509916 122.156833,80.4008337 122.3145,80.3165 C122.472167,80.2321663 122.639916,80.1698336 122.81775,80.1295 C122.995584,80.0891664 123.174333,80.069 123.354,80.069 C123.665669,80.069 123.942499,80.1166662 124.1845,80.212 C124.426501,80.3073338 124.629999,80.4466657 124.795,80.63 C124.960001,80.8133342 125.085583,81.0369987 125.17175,81.301 C125.257917,81.5650013 125.301,81.8674983 125.301,82.2085 L125.301,85.8 L123.9425,85.8 L123.9425,82.2085 C123.9425,81.8491649 123.863667,81.5787509 123.706,81.39725 C123.548333,81.2157491 123.317335,81.125 123.013,81.125 C122.873666,81.125 122.744417,81.148833 122.62525,81.1965 C122.506083,81.2441668 122.401584,81.3129162 122.31175,81.40275 C122.221916,81.4925838 122.151334,81.6053326 122.1,81.741 C122.048666,81.8766674 122.023,82.0324991 122.023,82.2085 L122.023,85.8 L120.659,85.8 L120.659,82.2085 C120.659,81.8308315 120.582917,81.5558341 120.43075,81.3835 C120.278583,81.2111657 120.055835,81.125 119.7625,81.125 C119.564499,81.125 119.380251,81.1735828 119.20975,81.27075 C119.039249,81.3679172 118.880667,81.5008325 118.734,81.6695 L118.734,85.8 L117.3755,85.8 Z M127.9465,84.337 C128.100501,84.5240009 128.268249,84.6559997 128.44975,84.733 C128.631251,84.8100004 128.828333,84.8485 129.041,84.8485 C129.246335,84.8485 129.431499,84.8100004 129.5965,84.733 C129.761501,84.6559997 129.901749,84.5386675 130.01725,84.381 C130.132751,84.2233326 130.221666,84.0244178 130.284,83.78425 C130.346334,83.5440822 130.3775,83.2608349 130.3775,82.9345 C130.3775,82.6044983 130.350917,82.3249178 130.29775,82.09575 C130.244583,81.8665822 130.1685,81.6805007 130.0695,81.5375 C129.9705,81.3944993 129.850417,81.2900003 129.70925,81.224 C129.568083,81.1579997 129.407667,81.125 129.228,81.125 C128.945665,81.125 128.705501,81.1845827 128.5075,81.30375 C128.309499,81.4229173 128.122501,81.5906655 127.9465,81.807 L127.9465,84.337 Z M127.875,80.927 C128.106001,80.6666654 128.368165,80.4558341 128.6615,80.2945 C128.954835,80.1331659 129.299498,80.0525 129.6955,80.0525 C130.003501,80.0525 130.284915,80.116666 130.53975,80.245 C130.794585,80.3733339 131.014583,80.5594154 131.19975,80.80325 C131.384917,81.0470846 131.527916,81.3477482 131.62875,81.70525 C131.729584,82.0627518 131.78,82.4724977 131.78,82.9345 C131.78,83.3561687 131.723167,83.7466649 131.6095,84.106 C131.495833,84.4653351 131.333585,84.7769987 131.12275,85.041 C130.911915,85.3050013 130.657085,85.5112492 130.35825,85.65975 C130.059415,85.8082508 129.724835,85.8825 129.3545,85.8825 C129.039165,85.8825 128.769667,85.8339172 128.546,85.73675 C128.322333,85.6395828 128.122501,85.5048342 127.9465,85.3325 L127.9465,87.6425 L126.588,87.6425 L126.588,80.157 L127.4185,80.157 C127.594501,80.157 127.71,80.2394991 127.765,80.4045 L127.875,80.927 Z M135.817,83.391 C135.424665,83.4093335 135.094669,83.4432498 134.827,83.49275 C134.559332,83.5422502 134.344834,83.6054997 134.1835,83.6825 C134.022166,83.7595004 133.906667,83.8493328 133.837,83.952 C133.767333,84.0546672 133.7325,84.1664994 133.7325,84.2875 C133.7325,84.5258345 133.803083,84.6963328 133.94425,84.799 C134.085417,84.9016672 134.269665,84.953 134.497,84.953 C134.775669,84.953 135.016749,84.9025838 135.22025,84.80175 C135.423751,84.7009162 135.622665,84.5478344 135.817,84.3425 L135.817,83.391 Z M132.704,80.9435 C133.353003,80.349497 134.133996,80.0525 135.047,80.0525 C135.377002,80.0525 135.672165,80.1065828 135.9325,80.21475 C136.192835,80.3229172 136.412833,80.473249 136.5925,80.66575 C136.772167,80.858251 136.90875,81.0883319 137.00225,81.356 C137.09575,81.6236679 137.1425,81.9169983 137.1425,82.236 L137.1425,85.8 L136.5265,85.8 C136.398166,85.8 136.299167,85.7807502 136.2295,85.74225 C136.159833,85.7037498 136.104834,85.6258339 136.0645,85.5085 L135.9435,85.1015 C135.800499,85.229834 135.661167,85.3425828 135.5255,85.43975 C135.389833,85.5369172 135.248667,85.6184997 135.102,85.6845 C134.955333,85.7505003 134.798584,85.8009165 134.63175,85.83575 C134.464916,85.8705835 134.280667,85.888 134.079,85.888 C133.840665,85.888 133.620667,85.855917 133.419,85.79175 C133.217333,85.727583 133.043167,85.6313339 132.8965,85.503 C132.749833,85.374666 132.636167,85.2151676 132.5555,85.0245 C132.474833,84.8338324 132.4345,84.6120013 132.4345,84.359 C132.4345,84.2159992 132.458333,84.0739174 132.506,83.93275 C132.553667,83.7915826 132.631583,83.656834 132.73975,83.5285 C132.847917,83.400166 132.988166,83.2791673 133.1605,83.1655 C133.332834,83.0518328 133.544583,82.9528338 133.79575,82.8685 C134.046917,82.7841662 134.339332,82.715417 134.673,82.66225 C135.006669,82.609083 135.387998,82.5770001 135.817,82.566 L135.817,82.236 C135.817,81.8583314 135.736334,81.5787509 135.575,81.39725 C135.413666,81.2157491 135.180835,81.125 134.8765,81.125 C134.656499,81.125 134.474084,81.1506664 134.32925,81.202 C134.184416,81.2533336 134.057001,81.311083 133.947,81.37525 C133.837,81.439417 133.737084,81.4971664 133.64725,81.5485 C133.557416,81.5998336 133.457501,81.6255 133.3475,81.6255 C133.252166,81.6255 133.1715,81.6007502 133.1055,81.55125 C133.0395,81.5017498 132.986334,81.4440003 132.946,81.378 L132.704,80.9435 Z M139.689,80.85 C139.802667,80.7363328 139.922749,80.6309172 140.04925,80.53375 C140.175751,80.4365828 140.309583,80.3540837 140.45075,80.28625 C140.591917,80.2184163 140.743166,80.1652502 140.9045,80.12675 C141.065834,80.0882498 141.241833,80.069 141.4325,80.069 C141.740501,80.069 142.013665,80.1212494 142.252,80.22575 C142.490335,80.3302505 142.689249,80.4769157 142.84875,80.66575 C143.008251,80.8545842 143.12925,81.080082 143.21175,81.34225 C143.29425,81.6044179 143.3355,81.8931651 143.3355,82.2085 L143.3355,85.8 L141.977,85.8 L141.977,82.2085 C141.977,81.8638316 141.898167,81.5970842 141.7405,81.40825 C141.582833,81.2194157 141.342669,81.125 141.02,81.125 C140.785333,81.125 140.565335,81.1781661 140.36,81.2845 C140.154665,81.3908338 139.960335,81.5356657 139.777,81.719 L139.777,85.8 L138.4185,85.8 L138.4185,80.157 L139.249,80.157 C139.425001,80.157 139.5405,80.2394991 139.5955,80.4045 L139.689,80.85 Z M149.5945,80.157 L146.52,87.351 C146.479666,87.4463338 146.427417,87.5187498 146.36325,87.56825 C146.299083,87.6177502 146.201001,87.6425 146.069,87.6425 L145.057,87.6425 L146.113,85.3765 L143.8305,80.157 L145.024,80.157 C145.130334,80.157 145.21375,80.1826664 145.27425,80.234 C145.33475,80.2853336 145.379666,80.3439997 145.409,80.41 L146.608,83.336 C146.648334,83.4350004 146.68225,83.5339994 146.70975,83.633 C146.73725,83.7320004 146.763834,83.8328328 146.7895,83.9355 C146.8225,83.8328328 146.8555,83.7310838 146.8885,83.63025 C146.9215,83.5294162 146.958166,83.4295005 146.9985,83.3305 L148.1315,80.41 C148.160834,80.3366663 148.209416,80.276167 148.27725,80.2285 C148.345084,80.1808331 148.421166,80.157 148.5055,80.157 L149.5945,80.157 Z" id="An-Innominds-Company" fill="#262626" fill-rule="nonzero"></path>
            </g>
        </g>
    </g>
</svg>